<svg width="151" height="151" viewBox="0 0 151 151" fill="none" xmlns="http://www.w3.org/2000/svg">
<rect width="151" height="151" rx="38" fill="#FABB18" fill-opacity="0.1"/>
<path fill-rule="evenodd" clip-rule="evenodd" d="M92.5512 97.0094L72.2273 76.6854V47.6667C72.2273 45.6416 73.8689 44 75.894 44C77.919 44 79.5606 45.6416 79.5606 47.6667V73.6479L97.7367 91.8239L108.04 81.5202C108.355 81.2052 108.894 81.4283 108.894 81.8738V105.833C108.894 106.109 108.67 106.333 108.394 106.333H84.4344C83.9889 106.333 83.7659 105.795 84.0808 105.48L92.5512 97.0094Z" fill="#EDA19B"/>
<path fill-rule="evenodd" clip-rule="evenodd" d="M68.0737 105.48C68.3887 105.795 68.1656 106.333 67.7201 106.333H43.5C43.2239 106.333 43 106.109 43 105.833V81.6132C43 81.1677 43.5386 80.9446 43.8536 81.2596L53.2547 90.6608L64.3588 81.2651L69.0957 86.8632L58.4582 95.8642L68.0737 105.48Z" fill="#EDA19B"/>
</svg>
