<svg width="46" height="58" viewBox="0 0 46 58" fill="none" xmlns="http://www.w3.org/2000/svg">
<path d="M41.104 22.375C43.8123 25.2459 45.1665 28.8588 45.1665 33.2084C45.1665 42.5955 35.1457 44.7892 30.2707 57.5834C28.4642 56.0261 27.5623 53.77 27.5623 50.8125C27.5623 41.3821 41.104 36.4855 41.104 22.375ZM30.2707 11.5417C33.5207 14.8946 35.1457 18.5075 35.1457 22.375C35.1457 35.784 18.7738 37.7909 22.1457 57.5834C17.6309 54.4417 15.3748 49.9269 15.3748 44.0417C15.3748 35.0365 30.2707 27.7917 30.2707 11.5417ZM18.0832 0.708374C21.6934 5.22317 23.4998 9.28567 23.4998 12.8959C23.4998 29.823 0.479004 35.1638 12.6665 57.5834C5.5815 56.0125 0.479004 49.4584 0.479004 41.3334C0.479004 23.7292 18.0832 21.0209 18.0832 0.708374Z" fill="black"/>
</svg>
